<?xml version="1.0" encoding="UTF-8" standalone="no"?>
<!DOCTYPE svg PUBLIC "-//W3C//DTD SVG 1.1//EN"
 "http://www.w3.org/Graphics/SVG/1.1/DTD/svg11.dtd">
<!-- Generated by graphviz version 2.47.0 (20210316.0004)
 -->
<!-- Title: dbml Pages: 1 -->
<svg width="742pt" height="1988pt"
 viewBox="0.00 0.00 741.98 1988.46" xmlns="http://www.w3.org/2000/svg" xmlns:xlink="http://www.w3.org/1999/xlink">
<g id="graph0" class="graph" transform="scale(1 1) rotate(0) translate(4 1984.46)">
<title>dbml</title>
<!-- order -->
<g id="order" class="node">
<title>order</title>
<ellipse fill="none" stroke="black" stroke-width="0" cx="366.99" cy="-808.93" rx="366.98" ry="808.86"/>
<polygon fill="#1d71b8" stroke="transparent" points="109.99,-1318.93 109.99,-1378.93 624.99,-1378.93 624.99,-1318.93 109.99,-1318.93"/>
<polygon fill="none" stroke="#29235c" points="109.99,-1318.93 109.99,-1378.93 624.99,-1378.93 624.99,-1318.93 109.99,-1318.93"/>
<text text-anchor="start" x="267.9" y="-1340.13" font-family="Helvetica,sans-Serif" font-weight="bold" font-size="32.00" fill="#ffffff"> &#160;&#160;&#160;&#160;&#160;&#160;order &#160;&#160;&#160;&#160;&#160;&#160;</text>
<polygon fill="#e7e2dd" stroke="transparent" points="109.99,-1258.93 109.99,-1318.93 624.99,-1318.93 624.99,-1258.93 109.99,-1258.93"/>
<polygon fill="none" stroke="#29235c" points="109.99,-1258.93 109.99,-1318.93 624.99,-1318.93 624.99,-1258.93 109.99,-1258.93"/>
<text text-anchor="start" x="120.99" y="-1279.13" font-family="Helvetica,sans-Serif" font-size="32.00" fill="#29235c">id &#160;&#160;&#160;</text>
<text text-anchor="start" x="580.21" y="-1280.13" font-family="Helvetica,sans-Serif" font-style="italic" font-size="32.00" fill="#29235c">int</text>
<polygon fill="#e7e2dd" stroke="transparent" points="109.99,-1198.93 109.99,-1258.93 624.99,-1258.93 624.99,-1198.93 109.99,-1198.93"/>
<polygon fill="none" stroke="#29235c" points="109.99,-1198.93 109.99,-1258.93 624.99,-1258.93 624.99,-1198.93 109.99,-1198.93"/>
<text text-anchor="start" x="120.99" y="-1219.13" font-family="Helvetica,sans-Serif" font-size="32.00" fill="#29235c">process_instance_id &#160;&#160;&#160;</text>
<text text-anchor="start" x="507.32" y="-1220.13" font-family="Helvetica,sans-Serif" font-style="italic" font-size="32.00" fill="#29235c">varchar</text>
<polygon fill="#e7e2dd" stroke="transparent" points="109.99,-1138.93 109.99,-1198.93 624.99,-1198.93 624.99,-1138.93 109.99,-1138.93"/>
<polygon fill="none" stroke="#29235c" points="109.99,-1138.93 109.99,-1198.93 624.99,-1198.93 624.99,-1138.93 109.99,-1138.93"/>
<text text-anchor="start" x="120.99" y="-1159.13" font-family="Helvetica,sans-Serif" font-size="32.00" fill="#29235c">current_task &#160;&#160;&#160;</text>
<text text-anchor="start" x="507.32" y="-1160.13" font-family="Helvetica,sans-Serif" font-style="italic" font-size="32.00" fill="#29235c">varchar</text>
<polygon fill="#e7e2dd" stroke="transparent" points="109.99,-1078.93 109.99,-1138.93 624.99,-1138.93 624.99,-1078.93 109.99,-1078.93"/>
<polygon fill="none" stroke="#29235c" points="109.99,-1078.93 109.99,-1138.93 624.99,-1138.93 624.99,-1078.93 109.99,-1078.93"/>
<text text-anchor="start" x="120.99" y="-1099.13" font-family="Helvetica,sans-Serif" font-size="32.00" fill="#29235c">ecl_numero &#160;&#160;&#160;</text>
<text text-anchor="start" x="507.32" y="-1100.13" font-family="Helvetica,sans-Serif" font-style="italic" font-size="32.00" fill="#29235c">varchar</text>
<polygon fill="#e7e2dd" stroke="transparent" points="109.99,-1018.93 109.99,-1078.93 624.99,-1078.93 624.99,-1018.93 109.99,-1018.93"/>
<polygon fill="none" stroke="#29235c" points="109.99,-1018.93 109.99,-1078.93 624.99,-1078.93 624.99,-1018.93 109.99,-1018.93"/>
<text text-anchor="start" x="120.99" y="-1039.13" font-family="Helvetica,sans-Serif" font-size="32.00" fill="#29235c">ecl_data &#160;&#160;&#160;</text>
<text text-anchor="start" x="491.29" y="-1040.13" font-family="Helvetica,sans-Serif" font-style="italic" font-size="32.00" fill="#29235c">datetime</text>
<polygon fill="#e7e2dd" stroke="transparent" points="109.99,-958.93 109.99,-1018.93 624.99,-1018.93 624.99,-958.93 109.99,-958.93"/>
<polygon fill="none" stroke="#29235c" points="109.99,-958.93 109.99,-1018.93 624.99,-1018.93 624.99,-958.93 109.99,-958.93"/>
<text text-anchor="start" x="120.99" y="-979.13" font-family="Helvetica,sans-Serif" font-size="32.00" fill="#29235c">cliente_id &#160;&#160;&#160;</text>
<text text-anchor="start" x="580.21" y="-980.13" font-family="Helvetica,sans-Serif" font-style="italic" font-size="32.00" fill="#29235c">int</text>
<polygon fill="#e7e2dd" stroke="transparent" points="109.99,-898.93 109.99,-958.93 624.99,-958.93 624.99,-898.93 109.99,-898.93"/>
<polygon fill="none" stroke="#29235c" points="109.99,-898.93 109.99,-958.93 624.99,-958.93 624.99,-898.93 109.99,-898.93"/>
<text text-anchor="start" x="120.99" y="-919.13" font-family="Helvetica,sans-Serif" font-size="32.00" fill="#29235c">fornecedor_id &#160;&#160;&#160;</text>
<text text-anchor="start" x="580.21" y="-920.13" font-family="Helvetica,sans-Serif" font-style="italic" font-size="32.00" fill="#29235c">int</text>
<polygon fill="#e7e2dd" stroke="transparent" points="109.99,-838.93 109.99,-898.93 624.99,-898.93 624.99,-838.93 109.99,-838.93"/>
<polygon fill="none" stroke="#29235c" points="109.99,-838.93 109.99,-898.93 624.99,-898.93 624.99,-838.93 109.99,-838.93"/>
<text text-anchor="start" x="120.67" y="-859.13" font-family="Helvetica,sans-Serif" font-size="32.00" fill="#29235c">fornecedor_classificacao &#160;&#160;&#160;</text>
<text text-anchor="start" x="507.65" y="-860.13" font-family="Helvetica,sans-Serif" font-style="italic" font-size="32.00" fill="#29235c">varchar</text>
<polygon fill="#e7e2dd" stroke="transparent" points="109.99,-778.93 109.99,-838.93 624.99,-838.93 624.99,-778.93 109.99,-778.93"/>
<polygon fill="none" stroke="#29235c" points="109.99,-778.93 109.99,-838.93 624.99,-838.93 624.99,-778.93 109.99,-778.93"/>
<text text-anchor="start" x="120.99" y="-799.13" font-family="Helvetica,sans-Serif" font-size="32.00" fill="#29235c">fornecedor_qualificado &#160;&#160;&#160;</text>
<text text-anchor="start" x="553.52" y="-800.13" font-family="Helvetica,sans-Serif" font-style="italic" font-size="32.00" fill="#29235c">bool</text>
<polygon fill="#e7e2dd" stroke="transparent" points="109.99,-718.93 109.99,-778.93 624.99,-778.93 624.99,-718.93 109.99,-718.93"/>
<polygon fill="none" stroke="#29235c" points="109.99,-718.93 109.99,-778.93 624.99,-778.93 624.99,-718.93 109.99,-718.93"/>
<text text-anchor="start" x="120.99" y="-739.13" font-family="Helvetica,sans-Serif" font-size="32.00" fill="#29235c">ecf_numero &#160;&#160;&#160;</text>
<text text-anchor="start" x="507.32" y="-740.13" font-family="Helvetica,sans-Serif" font-style="italic" font-size="32.00" fill="#29235c">varchar</text>
<polygon fill="#e7e2dd" stroke="transparent" points="109.99,-658.93 109.99,-718.93 624.99,-718.93 624.99,-658.93 109.99,-658.93"/>
<polygon fill="none" stroke="#29235c" points="109.99,-658.93 109.99,-718.93 624.99,-718.93 624.99,-658.93 109.99,-658.93"/>
<text text-anchor="start" x="120.99" y="-679.13" font-family="Helvetica,sans-Serif" font-size="32.00" fill="#29235c">ecf_data &#160;&#160;&#160;</text>
<text text-anchor="start" x="491.29" y="-680.13" font-family="Helvetica,sans-Serif" font-style="italic" font-size="32.00" fill="#29235c">datetime</text>
<polygon fill="#e7e2dd" stroke="transparent" points="109.99,-598.93 109.99,-658.93 624.99,-658.93 624.99,-598.93 109.99,-598.93"/>
<polygon fill="none" stroke="#29235c" points="109.99,-598.93 109.99,-658.93 624.99,-658.93 624.99,-598.93 109.99,-598.93"/>
<text text-anchor="start" x="120.99" y="-619.13" font-family="Helvetica,sans-Serif" font-size="32.00" fill="#29235c">produtos &#160;&#160;&#160;</text>
<text text-anchor="start" x="505.5" y="-620.13" font-family="Helvetica,sans-Serif" font-style="italic" font-size="32.00" fill="#29235c">produto</text>
<polygon fill="#e7e2dd" stroke="transparent" points="109.99,-538.93 109.99,-598.93 624.99,-598.93 624.99,-538.93 109.99,-538.93"/>
<polygon fill="none" stroke="#29235c" points="109.99,-538.93 109.99,-598.93 624.99,-598.93 624.99,-538.93 109.99,-538.93"/>
<text text-anchor="start" x="120.99" y="-559.13" font-family="Helvetica,sans-Serif" font-size="32.00" fill="#29235c">recebido_em &#160;&#160;&#160;</text>
<text text-anchor="start" x="491.29" y="-560.13" font-family="Helvetica,sans-Serif" font-style="italic" font-size="32.00" fill="#29235c">datetime</text>
<polygon fill="#e7e2dd" stroke="transparent" points="109.99,-478.93 109.99,-538.93 624.99,-538.93 624.99,-478.93 109.99,-478.93"/>
<polygon fill="none" stroke="#29235c" points="109.99,-478.93 109.99,-538.93 624.99,-538.93 624.99,-478.93 109.99,-478.93"/>
<text text-anchor="start" x="120.99" y="-499.13" font-family="Helvetica,sans-Serif" font-size="32.00" fill="#29235c">recebido_por &#160;&#160;&#160;</text>
<text text-anchor="start" x="507.32" y="-500.13" font-family="Helvetica,sans-Serif" font-style="italic" font-size="32.00" fill="#29235c">varchar</text>
<polygon fill="#e7e2dd" stroke="transparent" points="109.99,-418.93 109.99,-478.93 624.99,-478.93 624.99,-418.93 109.99,-418.93"/>
<polygon fill="none" stroke="#29235c" points="109.99,-418.93 109.99,-478.93 624.99,-478.93 624.99,-418.93 109.99,-418.93"/>
<text text-anchor="start" x="120.99" y="-439.13" font-family="Helvetica,sans-Serif" font-size="32.00" fill="#29235c">embalagem_ok &#160;&#160;&#160;</text>
<text text-anchor="start" x="553.52" y="-440.13" font-family="Helvetica,sans-Serif" font-style="italic" font-size="32.00" fill="#29235c">bool</text>
<polygon fill="#e7e2dd" stroke="transparent" points="109.99,-358.93 109.99,-418.93 624.99,-418.93 624.99,-358.93 109.99,-358.93"/>
<polygon fill="none" stroke="#29235c" points="109.99,-358.93 109.99,-418.93 624.99,-418.93 624.99,-358.93 109.99,-358.93"/>
<text text-anchor="start" x="120.99" y="-379.13" font-family="Helvetica,sans-Serif" font-size="32.00" fill="#29235c">documentacao_ok &#160;&#160;&#160;</text>
<text text-anchor="start" x="553.52" y="-380.13" font-family="Helvetica,sans-Serif" font-style="italic" font-size="32.00" fill="#29235c">bool</text>
<polygon fill="#e7e2dd" stroke="transparent" points="109.99,-298.93 109.99,-358.93 624.99,-358.93 624.99,-298.93 109.99,-298.93"/>
<polygon fill="none" stroke="#29235c" points="109.99,-298.93 109.99,-358.93 624.99,-358.93 624.99,-298.93 109.99,-298.93"/>
<text text-anchor="start" x="120.99" y="-319.13" font-family="Helvetica,sans-Serif" font-size="32.00" fill="#29235c">observacoes &#160;&#160;&#160;</text>
<text text-anchor="start" x="507.32" y="-320.13" font-family="Helvetica,sans-Serif" font-style="italic" font-size="32.00" fill="#29235c">varchar</text>
<polygon fill="#e7e2dd" stroke="transparent" points="109.99,-238.93 109.99,-298.93 624.99,-298.93 624.99,-238.93 109.99,-238.93"/>
<polygon fill="none" stroke="#29235c" points="109.99,-238.93 109.99,-298.93 624.99,-298.93 624.99,-238.93 109.99,-238.93"/>
<text text-anchor="start" x="120.99" y="-259.13" font-family="Helvetica,sans-Serif" font-size="32.00" fill="#29235c">is_finalizado &#160;&#160;&#160;</text>
<text text-anchor="start" x="553.52" y="-260.13" font-family="Helvetica,sans-Serif" font-style="italic" font-size="32.00" fill="#29235c">bool</text>
<polygon fill="none" stroke="#29235c" stroke-width="2" points="108.49,-237.93 108.49,-1379.93 625.49,-1379.93 625.49,-237.93 108.49,-237.93"/>
</g>
<!-- produto -->
<g id="produto" class="node">
<title>produto</title>
<ellipse fill="none" stroke="black" stroke-width="0" cx="366.99" cy="-1807.93" rx="263.5" ry="172.57"/>
<polygon fill="#1d71b8" stroke="transparent" points="182.99,-1867.93 182.99,-1927.93 551.99,-1927.93 551.99,-1867.93 182.99,-1867.93"/>
<polygon fill="none" stroke="#29235c" points="182.99,-1867.93 182.99,-1927.93 551.99,-1927.93 551.99,-1867.93 182.99,-1867.93"/>
<text text-anchor="start" x="250.99" y="-1889.13" font-family="Helvetica,sans-Serif" font-weight="bold" font-size="32.00" fill="#ffffff"> &#160;&#160;&#160;&#160;&#160;&#160;produto &#160;&#160;&#160;&#160;&#160;&#160;</text>
<polygon fill="#e7e2dd" stroke="transparent" points="182.99,-1807.93 182.99,-1867.93 551.99,-1867.93 551.99,-1807.93 182.99,-1807.93"/>
<polygon fill="none" stroke="#29235c" points="182.99,-1807.93 182.99,-1867.93 551.99,-1867.93 551.99,-1807.93 182.99,-1807.93"/>
<text text-anchor="start" x="193.99" y="-1828.13" font-family="Helvetica,sans-Serif" font-size="32.00" fill="#29235c">id &#160;&#160;&#160;</text>
<text text-anchor="start" x="507.21" y="-1829.13" font-family="Helvetica,sans-Serif" font-style="italic" font-size="32.00" fill="#29235c">int</text>
<polygon fill="#e7e2dd" stroke="transparent" points="182.99,-1747.93 182.99,-1807.93 551.99,-1807.93 551.99,-1747.93 182.99,-1747.93"/>
<polygon fill="none" stroke="#29235c" points="182.99,-1747.93 182.99,-1807.93 551.99,-1807.93 551.99,-1747.93 182.99,-1747.93"/>
<text text-anchor="start" x="193.55" y="-1768.13" font-family="Helvetica,sans-Serif" font-size="32.00" fill="#29235c">nome_produto &#160;&#160;&#160;</text>
<text text-anchor="start" x="434.65" y="-1769.13" font-family="Helvetica,sans-Serif" font-style="italic" font-size="32.00" fill="#29235c">varchar</text>
<polygon fill="#e7e2dd" stroke="transparent" points="182.99,-1687.93 182.99,-1747.93 551.99,-1747.93 551.99,-1687.93 182.99,-1687.93"/>
<polygon fill="none" stroke="#29235c" points="182.99,-1687.93 182.99,-1747.93 551.99,-1747.93 551.99,-1687.93 182.99,-1687.93"/>
<text text-anchor="start" x="193.99" y="-1708.13" font-family="Helvetica,sans-Serif" font-size="32.00" fill="#29235c">tipo_produto &#160;&#160;&#160;</text>
<text text-anchor="start" x="434.32" y="-1709.13" font-family="Helvetica,sans-Serif" font-style="italic" font-size="32.00" fill="#29235c">varchar</text>
<polygon fill="none" stroke="#29235c" stroke-width="2" points="181.49,-1686.93 181.49,-1928.93 552.49,-1928.93 552.49,-1686.93 181.49,-1686.93"/>
</g>
</g>
</svg>
