<?xml version="1.0" encoding="UTF-8" standalone="no"?>
<!DOCTYPE svg PUBLIC "-//W3C//DTD SVG 1.1//EN"
 "http://www.w3.org/Graphics/SVG/1.1/DTD/svg11.dtd">
<!-- Generated by graphviz version 2.47.0 (20210316.0004)
 -->
<!-- Title: dbml Pages: 1 -->
<svg width="742pt" height="2074pt"
 viewBox="0.00 0.00 741.98 2073.89" xmlns="http://www.w3.org/2000/svg" xmlns:xlink="http://www.w3.org/1999/xlink">
<g id="graph0" class="graph" transform="scale(1 1) rotate(0) translate(4 2069.89)">
<title>dbml</title>
<!-- order -->
<g id="order" class="node">
<title>order</title>
<ellipse fill="none" stroke="black" stroke-width="0" cx="366.99" cy="-851.36" rx="366.98" ry="851.21"/>
<polygon fill="#1d71b8" stroke="transparent" points="109.99,-1391.36 109.99,-1451.36 624.99,-1451.36 624.99,-1391.36 109.99,-1391.36"/>
<polygon fill="none" stroke="#29235c" points="109.99,-1391.36 109.99,-1451.36 624.99,-1451.36 624.99,-1391.36 109.99,-1391.36"/>
<text text-anchor="start" x="267.9" y="-1412.56" font-family="Helvetica,sans-Serif" font-weight="bold" font-size="32.00" fill="#ffffff"> &#160;&#160;&#160;&#160;&#160;&#160;order &#160;&#160;&#160;&#160;&#160;&#160;</text>
<polygon fill="#e7e2dd" stroke="transparent" points="109.99,-1331.36 109.99,-1391.36 624.99,-1391.36 624.99,-1331.36 109.99,-1331.36"/>
<polygon fill="none" stroke="#29235c" points="109.99,-1331.36 109.99,-1391.36 624.99,-1391.36 624.99,-1331.36 109.99,-1331.36"/>
<text text-anchor="start" x="120.99" y="-1351.56" font-family="Helvetica,sans-Serif" font-size="32.00" fill="#29235c">id &#160;&#160;&#160;</text>
<text text-anchor="start" x="580.21" y="-1352.56" font-family="Helvetica,sans-Serif" font-style="italic" font-size="32.00" fill="#29235c">int</text>
<polygon fill="#e7e2dd" stroke="transparent" points="109.99,-1271.36 109.99,-1331.36 624.99,-1331.36 624.99,-1271.36 109.99,-1271.36"/>
<polygon fill="none" stroke="#29235c" points="109.99,-1271.36 109.99,-1331.36 624.99,-1331.36 624.99,-1271.36 109.99,-1271.36"/>
<text text-anchor="start" x="120.99" y="-1291.56" font-family="Helvetica,sans-Serif" font-size="32.00" fill="#29235c">process_instance_id &#160;&#160;&#160;</text>
<text text-anchor="start" x="507.32" y="-1292.56" font-family="Helvetica,sans-Serif" font-style="italic" font-size="32.00" fill="#29235c">varchar</text>
<polygon fill="#e7e2dd" stroke="transparent" points="109.99,-1211.36 109.99,-1271.36 624.99,-1271.36 624.99,-1211.36 109.99,-1211.36"/>
<polygon fill="none" stroke="#29235c" points="109.99,-1211.36 109.99,-1271.36 624.99,-1271.36 624.99,-1211.36 109.99,-1211.36"/>
<text text-anchor="start" x="120.99" y="-1231.56" font-family="Helvetica,sans-Serif" font-size="32.00" fill="#29235c">current_task &#160;&#160;&#160;</text>
<text text-anchor="start" x="507.32" y="-1232.56" font-family="Helvetica,sans-Serif" font-style="italic" font-size="32.00" fill="#29235c">varchar</text>
<polygon fill="#e7e2dd" stroke="transparent" points="109.99,-1151.36 109.99,-1211.36 624.99,-1211.36 624.99,-1151.36 109.99,-1151.36"/>
<polygon fill="none" stroke="#29235c" points="109.99,-1151.36 109.99,-1211.36 624.99,-1211.36 624.99,-1151.36 109.99,-1151.36"/>
<text text-anchor="start" x="120.99" y="-1171.56" font-family="Helvetica,sans-Serif" font-size="32.00" fill="#29235c">ecl_numero &#160;&#160;&#160;</text>
<text text-anchor="start" x="507.32" y="-1172.56" font-family="Helvetica,sans-Serif" font-style="italic" font-size="32.00" fill="#29235c">varchar</text>
<polygon fill="#e7e2dd" stroke="transparent" points="109.99,-1091.36 109.99,-1151.36 624.99,-1151.36 624.99,-1091.36 109.99,-1091.36"/>
<polygon fill="none" stroke="#29235c" points="109.99,-1091.36 109.99,-1151.36 624.99,-1151.36 624.99,-1091.36 109.99,-1091.36"/>
<text text-anchor="start" x="120.99" y="-1111.56" font-family="Helvetica,sans-Serif" font-size="32.00" fill="#29235c">ecl_data &#160;&#160;&#160;</text>
<text text-anchor="start" x="491.29" y="-1112.56" font-family="Helvetica,sans-Serif" font-style="italic" font-size="32.00" fill="#29235c">datetime</text>
<polygon fill="#e7e2dd" stroke="transparent" points="109.99,-1031.36 109.99,-1091.36 624.99,-1091.36 624.99,-1031.36 109.99,-1031.36"/>
<polygon fill="none" stroke="#29235c" points="109.99,-1031.36 109.99,-1091.36 624.99,-1091.36 624.99,-1031.36 109.99,-1031.36"/>
<text text-anchor="start" x="120.99" y="-1051.56" font-family="Helvetica,sans-Serif" font-size="32.00" fill="#29235c">cliente_id &#160;&#160;&#160;</text>
<text text-anchor="start" x="580.21" y="-1052.56" font-family="Helvetica,sans-Serif" font-style="italic" font-size="32.00" fill="#29235c">int</text>
<polygon fill="#e7e2dd" stroke="transparent" points="109.99,-971.36 109.99,-1031.36 624.99,-1031.36 624.99,-971.36 109.99,-971.36"/>
<polygon fill="none" stroke="#29235c" points="109.99,-971.36 109.99,-1031.36 624.99,-1031.36 624.99,-971.36 109.99,-971.36"/>
<text text-anchor="start" x="120.99" y="-991.56" font-family="Helvetica,sans-Serif" font-size="32.00" fill="#29235c">fornecedor_id &#160;&#160;&#160;</text>
<text text-anchor="start" x="580.21" y="-992.56" font-family="Helvetica,sans-Serif" font-style="italic" font-size="32.00" fill="#29235c">int</text>
<polygon fill="#e7e2dd" stroke="transparent" points="109.99,-911.36 109.99,-971.36 624.99,-971.36 624.99,-911.36 109.99,-911.36"/>
<polygon fill="none" stroke="#29235c" points="109.99,-911.36 109.99,-971.36 624.99,-971.36 624.99,-911.36 109.99,-911.36"/>
<text text-anchor="start" x="120.67" y="-931.56" font-family="Helvetica,sans-Serif" font-size="32.00" fill="#29235c">fornecedor_classificacao &#160;&#160;&#160;</text>
<text text-anchor="start" x="507.65" y="-932.56" font-family="Helvetica,sans-Serif" font-style="italic" font-size="32.00" fill="#29235c">varchar</text>
<polygon fill="#e7e2dd" stroke="transparent" points="109.99,-851.36 109.99,-911.36 624.99,-911.36 624.99,-851.36 109.99,-851.36"/>
<polygon fill="none" stroke="#29235c" points="109.99,-851.36 109.99,-911.36 624.99,-911.36 624.99,-851.36 109.99,-851.36"/>
<text text-anchor="start" x="120.99" y="-871.56" font-family="Helvetica,sans-Serif" font-size="32.00" fill="#29235c">fornecedor_qualificado &#160;&#160;&#160;</text>
<text text-anchor="start" x="553.52" y="-872.56" font-family="Helvetica,sans-Serif" font-style="italic" font-size="32.00" fill="#29235c">bool</text>
<polygon fill="#e7e2dd" stroke="transparent" points="109.99,-791.36 109.99,-851.36 624.99,-851.36 624.99,-791.36 109.99,-791.36"/>
<polygon fill="none" stroke="#29235c" points="109.99,-791.36 109.99,-851.36 624.99,-851.36 624.99,-791.36 109.99,-791.36"/>
<text text-anchor="start" x="120.99" y="-811.56" font-family="Helvetica,sans-Serif" font-size="32.00" fill="#29235c">ecf_numero &#160;&#160;&#160;</text>
<text text-anchor="start" x="507.32" y="-812.56" font-family="Helvetica,sans-Serif" font-style="italic" font-size="32.00" fill="#29235c">varchar</text>
<polygon fill="#e7e2dd" stroke="transparent" points="109.99,-731.36 109.99,-791.36 624.99,-791.36 624.99,-731.36 109.99,-731.36"/>
<polygon fill="none" stroke="#29235c" points="109.99,-731.36 109.99,-791.36 624.99,-791.36 624.99,-731.36 109.99,-731.36"/>
<text text-anchor="start" x="120.99" y="-751.56" font-family="Helvetica,sans-Serif" font-size="32.00" fill="#29235c">ecf_data &#160;&#160;&#160;</text>
<text text-anchor="start" x="491.29" y="-752.56" font-family="Helvetica,sans-Serif" font-style="italic" font-size="32.00" fill="#29235c">datetime</text>
<polygon fill="#e7e2dd" stroke="transparent" points="109.99,-671.36 109.99,-731.36 624.99,-731.36 624.99,-671.36 109.99,-671.36"/>
<polygon fill="none" stroke="#29235c" points="109.99,-671.36 109.99,-731.36 624.99,-731.36 624.99,-671.36 109.99,-671.36"/>
<text text-anchor="start" x="120.99" y="-691.56" font-family="Helvetica,sans-Serif" font-size="32.00" fill="#29235c">produtos &#160;&#160;&#160;</text>
<text text-anchor="start" x="505.5" y="-692.56" font-family="Helvetica,sans-Serif" font-style="italic" font-size="32.00" fill="#29235c">produto</text>
<polygon fill="#e7e2dd" stroke="transparent" points="109.99,-611.36 109.99,-671.36 624.99,-671.36 624.99,-611.36 109.99,-611.36"/>
<polygon fill="none" stroke="#29235c" points="109.99,-611.36 109.99,-671.36 624.99,-671.36 624.99,-611.36 109.99,-611.36"/>
<text text-anchor="start" x="120.99" y="-631.56" font-family="Helvetica,sans-Serif" font-size="32.00" fill="#29235c">imagens &#160;&#160;&#160;</text>
<text text-anchor="start" x="509.04" y="-632.56" font-family="Helvetica,sans-Serif" font-style="italic" font-size="32.00" fill="#29235c">base64</text>
<polygon fill="#e7e2dd" stroke="transparent" points="109.99,-551.36 109.99,-611.36 624.99,-611.36 624.99,-551.36 109.99,-551.36"/>
<polygon fill="none" stroke="#29235c" points="109.99,-551.36 109.99,-611.36 624.99,-611.36 624.99,-551.36 109.99,-551.36"/>
<text text-anchor="start" x="120.99" y="-571.56" font-family="Helvetica,sans-Serif" font-size="32.00" fill="#29235c">recebido_em &#160;&#160;&#160;</text>
<text text-anchor="start" x="491.29" y="-572.56" font-family="Helvetica,sans-Serif" font-style="italic" font-size="32.00" fill="#29235c">datetime</text>
<polygon fill="#e7e2dd" stroke="transparent" points="109.99,-491.36 109.99,-551.36 624.99,-551.36 624.99,-491.36 109.99,-491.36"/>
<polygon fill="none" stroke="#29235c" points="109.99,-491.36 109.99,-551.36 624.99,-551.36 624.99,-491.36 109.99,-491.36"/>
<text text-anchor="start" x="120.99" y="-511.56" font-family="Helvetica,sans-Serif" font-size="32.00" fill="#29235c">recebido_por &#160;&#160;&#160;</text>
<text text-anchor="start" x="507.32" y="-512.56" font-family="Helvetica,sans-Serif" font-style="italic" font-size="32.00" fill="#29235c">varchar</text>
<polygon fill="#e7e2dd" stroke="transparent" points="109.99,-431.36 109.99,-491.36 624.99,-491.36 624.99,-431.36 109.99,-431.36"/>
<polygon fill="none" stroke="#29235c" points="109.99,-431.36 109.99,-491.36 624.99,-491.36 624.99,-431.36 109.99,-431.36"/>
<text text-anchor="start" x="120.99" y="-451.56" font-family="Helvetica,sans-Serif" font-size="32.00" fill="#29235c">embalagem_ok &#160;&#160;&#160;</text>
<text text-anchor="start" x="553.52" y="-452.56" font-family="Helvetica,sans-Serif" font-style="italic" font-size="32.00" fill="#29235c">bool</text>
<polygon fill="#e7e2dd" stroke="transparent" points="109.99,-371.36 109.99,-431.36 624.99,-431.36 624.99,-371.36 109.99,-371.36"/>
<polygon fill="none" stroke="#29235c" points="109.99,-371.36 109.99,-431.36 624.99,-431.36 624.99,-371.36 109.99,-371.36"/>
<text text-anchor="start" x="120.99" y="-391.56" font-family="Helvetica,sans-Serif" font-size="32.00" fill="#29235c">documentacao_ok &#160;&#160;&#160;</text>
<text text-anchor="start" x="553.52" y="-392.56" font-family="Helvetica,sans-Serif" font-style="italic" font-size="32.00" fill="#29235c">bool</text>
<polygon fill="#e7e2dd" stroke="transparent" points="109.99,-311.36 109.99,-371.36 624.99,-371.36 624.99,-311.36 109.99,-311.36"/>
<polygon fill="none" stroke="#29235c" points="109.99,-311.36 109.99,-371.36 624.99,-371.36 624.99,-311.36 109.99,-311.36"/>
<text text-anchor="start" x="120.99" y="-331.56" font-family="Helvetica,sans-Serif" font-size="32.00" fill="#29235c">observacoes &#160;&#160;&#160;</text>
<text text-anchor="start" x="507.32" y="-332.56" font-family="Helvetica,sans-Serif" font-style="italic" font-size="32.00" fill="#29235c">varchar</text>
<polygon fill="#e7e2dd" stroke="transparent" points="109.99,-251.36 109.99,-311.36 624.99,-311.36 624.99,-251.36 109.99,-251.36"/>
<polygon fill="none" stroke="#29235c" points="109.99,-251.36 109.99,-311.36 624.99,-311.36 624.99,-251.36 109.99,-251.36"/>
<text text-anchor="start" x="120.99" y="-271.56" font-family="Helvetica,sans-Serif" font-size="32.00" fill="#29235c">is_finalizado &#160;&#160;&#160;</text>
<text text-anchor="start" x="553.52" y="-272.56" font-family="Helvetica,sans-Serif" font-style="italic" font-size="32.00" fill="#29235c">bool</text>
<polygon fill="none" stroke="#29235c" stroke-width="2" points="108.49,-250.36 108.49,-1452.36 625.49,-1452.36 625.49,-250.36 108.49,-250.36"/>
</g>
<!-- produto -->
<g id="produto" class="node">
<title>produto</title>
<ellipse fill="none" stroke="black" stroke-width="0" cx="366.99" cy="-1893.36" rx="263.5" ry="172.57"/>
<polygon fill="#1d71b8" stroke="transparent" points="182.99,-1953.36 182.99,-2013.36 551.99,-2013.36 551.99,-1953.36 182.99,-1953.36"/>
<polygon fill="none" stroke="#29235c" points="182.99,-1953.36 182.99,-2013.36 551.99,-2013.36 551.99,-1953.36 182.99,-1953.36"/>
<text text-anchor="start" x="250.99" y="-1974.56" font-family="Helvetica,sans-Serif" font-weight="bold" font-size="32.00" fill="#ffffff"> &#160;&#160;&#160;&#160;&#160;&#160;produto &#160;&#160;&#160;&#160;&#160;&#160;</text>
<polygon fill="#e7e2dd" stroke="transparent" points="182.99,-1893.36 182.99,-1953.36 551.99,-1953.36 551.99,-1893.36 182.99,-1893.36"/>
<polygon fill="none" stroke="#29235c" points="182.99,-1893.36 182.99,-1953.36 551.99,-1953.36 551.99,-1893.36 182.99,-1893.36"/>
<text text-anchor="start" x="193.99" y="-1913.56" font-family="Helvetica,sans-Serif" font-size="32.00" fill="#29235c">id &#160;&#160;&#160;</text>
<text text-anchor="start" x="507.21" y="-1914.56" font-family="Helvetica,sans-Serif" font-style="italic" font-size="32.00" fill="#29235c">int</text>
<polygon fill="#e7e2dd" stroke="transparent" points="182.99,-1833.36 182.99,-1893.36 551.99,-1893.36 551.99,-1833.36 182.99,-1833.36"/>
<polygon fill="none" stroke="#29235c" points="182.99,-1833.36 182.99,-1893.36 551.99,-1893.36 551.99,-1833.36 182.99,-1833.36"/>
<text text-anchor="start" x="193.55" y="-1853.56" font-family="Helvetica,sans-Serif" font-size="32.00" fill="#29235c">nome_produto &#160;&#160;&#160;</text>
<text text-anchor="start" x="434.65" y="-1854.56" font-family="Helvetica,sans-Serif" font-style="italic" font-size="32.00" fill="#29235c">varchar</text>
<polygon fill="#e7e2dd" stroke="transparent" points="182.99,-1773.36 182.99,-1833.36 551.99,-1833.36 551.99,-1773.36 182.99,-1773.36"/>
<polygon fill="none" stroke="#29235c" points="182.99,-1773.36 182.99,-1833.36 551.99,-1833.36 551.99,-1773.36 182.99,-1773.36"/>
<text text-anchor="start" x="193.99" y="-1793.56" font-family="Helvetica,sans-Serif" font-size="32.00" fill="#29235c">tipo_produto &#160;&#160;&#160;</text>
<text text-anchor="start" x="434.32" y="-1794.56" font-family="Helvetica,sans-Serif" font-style="italic" font-size="32.00" fill="#29235c">varchar</text>
<polygon fill="none" stroke="#29235c" stroke-width="2" points="181.49,-1772.36 181.49,-2014.36 552.49,-2014.36 552.49,-1772.36 181.49,-1772.36"/>
</g>
</g>
</svg>
